<?xml version="1.0" standalone="no"?>
<!DOCTYPE svg PUBLIC "-//W3C//DTD SVG 20010904//EN"
 "http://www.w3.org/TR/2001/REC-SVG-20010904/DTD/svg10.dtd">
<svg version="1.0" xmlns="http://www.w3.org/2000/svg"
 width="450.000000pt" height="250.000000pt" viewBox="0 0 450.000000 250.000000"
 preserveAspectRatio="xMidYMid meet">
<metadata>
Created by potrace 1.16, written by Peter Selinger 2001-2019
</metadata>
<g transform="translate(0.000000,250.000000) scale(0.100000,-0.100000)"
fill="#000000" stroke="none">
<path d="M4424 2403 c-6 -2 -254 -52 -550 -111 l-539 -108 0 -262 0 -262 -42
0 c-35 0 -42 3 -46 23 l-4 22 -2 -22 c0 -13 -7 -23 -15 -23 -22 0 -27 -150 -6
-168 13 -12 9 -13 -25 -9 -22 3 -65 9 -95 13 -30 3 -61 11 -67 16 -8 6 -13 34
-13 68 l0 57 43 9 c35 7 24 9 -69 12 -127 3 -123 -1 -125 102 -1 51 -2 53 -9
20 -9 -38 -14 -107 -11 -155 2 -23 4 -26 10 -12 5 15 11 10 29 -27 13 -25 28
-48 34 -52 5 -4 5 4 -2 17 -13 24 -13 24 9 5 29 -26 27 -31 -19 -46 l-40 -13
-2 -86 -2 -86 -6 95 -6 95 -3 -105 c-2 -70 -6 -97 -11 -80 l-8 25 -3 -25 c-1
-14 -5 0 -9 30 l-7 55 -1 -68 c-1 -42 2 -66 8 -62 5 3 42 15 82 25 83 22 153
26 164 8 10 -16 6 -80 -6 -92 -5 -5 -6 -14 -4 -21 3 -7 -9 -17 -28 -23 l-33
-11 35 5 c35 6 100 47 100 63 0 5 9 11 20 14 14 4 20 13 20 34 -1 27 -1 27
-16 8 -15 -20 -15 -20 -34 3 -10 12 -23 22 -29 22 -19 0 -22 19 -4 37 10 10
29 34 43 53 46 66 70 68 70 5 0 -35 4 -45 17 -45 14 0 13 -4 -5 -23 -22 -23
-22 -24 -4 -40 24 -22 42 -22 42 1 1 16 1 16 11 -1 13 -23 94 -24 103 -1 12
30 6 34 -53 34 -68 0 -69 2 -61 85 l5 50 159 -2 c158 -3 193 -10 182 -39 -3
-9 1 -11 12 -7 15 6 15 5 3 -10 -7 -9 -19 -17 -27 -17 -11 0 -31 -37 -22 -44
1 -2 26 -6 55 -10 l52 -7 -6 51 c-5 46 -4 50 15 50 46 0 71 -21 77 -65 6 -39
9 -42 49 -53 44 -11 106 -68 106 -97 0 -10 11 -15 33 -15 l32 -1 -38 -20 c-38
-20 -57 -51 -57 -92 0 -19 2 -19 30 8 17 16 30 26 30 22 0 -17 -177 -276 -185
-270 -4 5 -5 2 -1 -5 5 -8 -1 -23 -15 -38 l-23 -24 -23 22 c-19 17 -23 32 -23
76 l0 55 -19 -25 c-12 -15 -18 -33 -14 -46 4 -15 -4 -30 -25 -52 -32 -31 -32
-42 0 -13 17 15 18 14 18 -19 0 -19 -6 -42 -13 -52 -12 -16 -17 -17 -72 -3
-102 26 -199 37 -324 37 -110 0 -121 -2 -131 -20 -10 -19 -8 -19 33 -14 51 7
346 -13 399 -27 l38 -10 -37 -37 c-21 -20 -38 -40 -38 -44 0 -4 -7 -13 -15
-20 -12 -11 -12 -11 -1 5 18 23 9 22 -50 -8 -27 -14 -57 -24 -67 -23 -9 2 -16
-2 -15 -8 1 -7 -6 -10 -17 -7 -11 3 -18 9 -15 13 3 5 1 11 -4 14 -5 4 -13 -3
-16 -15 -5 -15 -10 -18 -15 -9 -5 8 -9 4 -14 -12 -4 -17 -8 -20 -15 -10 -7 12
-12 12 -30 1 -11 -8 -21 -20 -21 -29 0 -8 -12 -24 -26 -36 -14 -13 -24 -26
-22 -30 4 -12 -62 -24 -94 -18 -17 3 -36 19 -49 41 -21 33 -21 43 -15 156 l7
121 -26 -24 c-14 -13 -25 -29 -25 -37 0 -7 -17 -21 -38 -32 -47 -24 -71 -63
-52 -86 19 -22 -6 -20 -31 4 -20 18 -20 20 -3 46 15 23 15 28 3 36 -8 5 -24 7
-36 4 -17 -4 -26 1 -37 22 -13 26 -14 18 -10 -87 8 -193 16 -320 21 -320 2 0
13 5 24 10 34 19 22 -16 -13 -40 -18 -12 -25 -19 -15 -16 10 3 17 3 15 -1 -35
-73 -42 -76 -75 -41 -33 38 -39 52 -15 39 11 -6 29 -11 38 -11 10 0 -6 12 -34
26 -29 14 -65 39 -80 54 -24 24 -122 87 -524 343 -27 16 -48 35 -48 40 0 6 8
3 18 -5 22 -20 499 -318 521 -326 14 -5 15 -4 1 14 -14 18 -14 18 2 5 10 -7
16 -17 13 -21 -7 -11 17 -18 36 -11 28 11 74 55 87 86 12 25 11 31 -2 41 -11
7 -16 27 -16 60 -1 27 -7 60 -15 74 -9 16 -14 54 -15 103 0 73 1 77 19 68 14
-8 23 -5 41 14 l23 24 -29 -2 c-28 -2 -29 -1 -32 53 -3 54 -13 70 -41 70 -11
0 -10 -4 4 -14 18 -13 35 -73 18 -63 -5 3 -10 -4 -10 -16 -1 -12 3 -25 10 -29
6 -4 9 -10 5 -13 -3 -4 -16 3 -27 14 -31 31 -54 28 -47 -7 3 -15 8 -52 12 -82
4 -33 14 -63 26 -76 25 -28 10 -38 -20 -15 -20 15 -25 30 -31 107 l-8 89 -4
-70 c-3 -69 -3 -69 -9 30 -4 70 -7 83 -8 43 l-2 -56 -30 14 c-17 9 -30 19 -30
22 0 4 -12 8 -26 8 -14 1 -33 9 -43 18 -10 9 -24 16 -32 16 -22 1 -52 49 -55
89 -1 19 -9 40 -16 46 -8 5 -17 18 -21 28 -3 9 -10 17 -15 17 -13 0 -82 -96
-82 -115 0 -9 -21 -43 -47 -75 -50 -62 -77 -80 -48 -32 16 27 -26 -17 -107
-112 l-42 -48 30 6 c16 3 36 2 44 -4 12 -7 7 -12 -22 -25 -42 -17 -72 -21 -48
-5 12 8 12 10 -2 15 -14 6 -13 12 9 53 14 26 30 54 36 62 6 8 -4 2 -22 -15
-19 -16 -31 -25 -27 -18 3 6 1 13 -5 15 -6 2 11 30 37 63 27 32 43 55 36 51
-13 -8 -230 -266 -415 -493 -60 -73 -111 -133 -115 -133 -4 0 -87 114 -185
253 l-177 252 270 265 c149 146 270 270 270 275 -1 6 -11 -1 -23 -16 -68 -78
-247 -240 -258 -233 -9 5 -6 10 10 16 13 4 25 17 28 28 3 11 11 20 17 20 7 0
37 24 68 52 56 53 56 53 61 121 l5 68 -47 -6 c-77 -11 -73 -5 -67 -109 5 -69
3 -96 -6 -104 -10 -8 -14 18 -15 128 l-3 139 38 -6 c57 -9 65 -9 69 4 5 14
-35 33 -68 33 -10 0 -27 -9 -36 -19 -18 -22 -24 -18 -62 39 l-23 35 24 -25
c23 -25 23 -25 184 -22 l160 4 17 -26 c15 -22 25 -26 64 -26 39 0 51 5 72 30
22 25 38 31 95 40 38 6 71 8 74 5 3 -3 -4 -5 -15 -5 -12 0 -24 -7 -27 -16 -9
-24 -8 -27 10 -20 15 6 142 27 169 29 6 0 42 -3 80 -7 l70 -7 -28 26 c-17 15
-22 25 -14 25 8 0 27 -12 43 -26 l28 -27 -34 -11 c-20 -6 -36 -19 -38 -29 -3
-16 0 -18 20 -12 12 4 30 10 38 12 8 3 -7 -10 -35 -27 -68 -44 -79 -57 -26
-30 l44 22 -22 -30 c-11 -17 -21 -35 -21 -41 0 -6 -15 -15 -32 -20 -24 -6 -12
-7 47 -4 98 6 105 8 105 31 0 19 3 19 78 3 88 -18 96 -26 129 -115 12 -34 23
-59 23 -56 0 3 1 135 1 294 l2 290 -145 -3 -145 -3 -6 39 c-4 21 -7 84 -7 140
l0 102 38 10 c20 5 78 17 127 26 50 8 101 18 115 21 l25 4 -1 131 c-1 71 -4
133 -7 136 -4 3 -12 -6 -18 -21 -7 -14 -20 -28 -30 -31 -9 -3 -20 -13 -23 -21
-4 -12 -1 -14 14 -9 19 6 20 2 20 -69 0 -63 3 -75 18 -78 19 -5 -123 -41 -235
-60 l-73 -12 0 -163 c0 -138 -2 -163 -15 -163 -15 0 -20 -28 -15 -92 1 -16 -3
-28 -8 -28 -21 0 -42 12 -36 21 3 5 -3 6 -12 2 -14 -5 -16 -2 -11 18 10 40 17
168 8 134 -9 -30 -9 -30 -10 9 -1 35 -3 37 -18 25 -14 -12 -14 -10 1 14 17 24
15 32 -6 28 -5 0 -8 6 -8 14 0 8 7 15 15 15 8 0 15 5 15 10 0 14 -19 12 -35
-3 -8 -8 -11 -30 -9 -55 2 -23 0 -42 -5 -42 -5 0 -8 8 -7 18 1 12 -8 18 -27
20 -43 5 -57 -13 -57 -74 0 -33 -4 -54 -11 -54 -6 0 -9 -7 -5 -15 3 -8 1 -15
-4 -15 -6 0 -10 -7 -10 -15 0 -8 -6 -15 -12 -15 -8 -1 -6 -6 5 -14 15 -12 8
-14 -56 -20 -129 -12 -526 -26 -734 -26 -186 0 -225 5 -193 25 5 3 10 11 10
16 0 6 -4 8 -9 4 -5 -3 -12 5 -14 17 -2 13 -5 5 -6 -18 0 -23 -5 -54 -10 -70
-5 -16 -12 -56 -15 -88 -3 -32 -11 -65 -17 -72 -6 -8 -8 -14 -4 -14 10 0 88
62 98 77 4 7 13 13 19 13 6 0 30 16 54 35 43 35 64 44 64 25 0 -7 14 -8 38 -4
l37 7 -25 -28 -25 -29 33 23 c18 13 35 21 38 18 7 -6 -142 -122 -158 -122 -19
0 -129 -86 -122 -96 9 -15 -29 3 -59 27 -42 35 -56 23 -51 -44 3 -31 1 -53 -3
-49 -4 4 -8 65 -10 135 -4 176 -6 184 -13 52 l-6 -115 -3 150 c-3 100 -6 137
-11 110 -6 -36 -7 -33 -10 30 -3 58 -4 62 -7 24 l-4 -46 -67 -7 c-37 -3 -84
-6 -104 -6 l-38 0 0 -80 c0 -57 -4 -82 -13 -86 -7 -2 -13 -21 -14 -42 0 -20 2
-31 4 -24 9 24 19 11 15 -19 -4 -24 0 -31 15 -35 15 -4 19 -12 15 -30 -4 -21
-18 -29 -44 -25 -5 0 -8 -4 -8 -9 0 -6 11 -8 25 -4 21 5 25 3 24 -17 0 -13 -3
-18 -6 -11 -2 6 -12 12 -20 12 -10 0 -13 -6 -9 -16 3 -8 2 -12 -4 -9 -6 3 -10
1 -10 -4 0 -6 11 -11 25 -11 17 0 25 -5 25 -17 0 -15 -2 -15 -9 -4 -13 20 -41
6 -42 -21 -1 -13 -2 -27 -4 -33 -1 -5 -3 -22 -3 -37 -2 -19 -8 -28 -19 -29
-15 0 -15 -2 2 -9 16 -6 17 -9 5 -13 -30 -11 -190 -30 -197 -24 -3 4 1 7 11 7
9 0 14 5 11 10 -3 6 -17 7 -31 4 -19 -5 -23 -3 -18 10 3 9 1 16 -5 16 -25 0
-9 20 17 21 15 1 38 5 52 9 16 6 -1 8 -50 5 -49 -3 -68 -1 -55 5 11 5 14 9 7
9 -7 1 -10 6 -7 11 3 6 -5 14 -19 19 -13 6 -26 18 -28 28 -3 14 6 20 42 29
l45 12 -53 1 c-51 1 -52 2 -41 24 11 19 10 20 -3 9 -13 -10 -17 -10 -22 3 -3
9 -2 14 3 11 14 -9 34 22 28 43 -4 17 6 19 122 30 69 6 140 11 158 11 31 0 31
0 35 58 2 31 2 61 0 65 -2 5 -40 6 -83 2 -51 -5 -79 -3 -79 3 0 16 27 22 96
22 39 0 64 4 64 11 0 7 -41 9 -127 5 -71 -3 -152 -5 -180 -5 -38 -1 -53 -5
-53 -15 0 -11 18 -12 90 -8 64 3 90 1 90 -7 0 -7 -26 -11 -77 -11 -43 0 -83
-4 -90 -8 -7 -4 -14 -38 -16 -77 -2 -41 -3 -27 -3 35 l1 105 98 3 c87 2 97 5
97 21 0 21 26 31 83 31 30 0 37 -4 37 -20 0 -16 7 -20 35 -20 31 0 35 3 40 33
4 19 5 47 3 63 l-3 29 -127 3 c-109 2 -128 5 -128 18 0 12 -7 15 -30 12 -34
-5 -44 11 -38 65 2 23 -1 32 -12 33 -8 1 -64 2 -125 2 l-110 2 3 192 c2 106 6
195 8 198 7 6 748 -51 756 -59 7 -6 13 -329 6 -336 -2 -2 -72 -5 -155 -6
l-151 -2 -4 -43 c-3 -43 -3 -44 28 -44 31 0 32 1 24 35 -6 27 -5 35 6 35 8 0
20 -12 26 -26 10 -21 9 -27 -3 -35 -11 -8 -10 -9 6 -7 20 4 23 19 10 51 -7 16
3 17 119 17 l126 0 0 195 c0 107 -2 195 -5 195 -20 0 -783 71 -795 74 -8 2 4
4 28 5 23 0 42 6 42 11 0 6 7 10 16 10 8 0 12 5 9 10 -3 6 -2 10 4 10 5 0 12
8 15 18 8 23 62 56 71 42 3 -5 15 -10 26 -10 10 0 19 -7 19 -15 0 -13 45 -95
53 -95 1 0 1 38 -1 85 -2 47 -1 85 2 85 17 0 495 -61 518 -66 27 -5 28 -7 28
-74 0 -38 -4 -70 -8 -72 -5 -1 -6 -28 -2 -58 l6 -55 7 53 c4 29 12 50 17 47 5
-3 12 11 16 32 4 21 13 47 20 58 13 18 14 17 14 -17 0 -24 5 -38 16 -42 9 -4
14 -9 11 -13 -4 -3 -2 -12 3 -19 6 -6 13 -101 17 -215 3 -112 9 -194 13 -184
4 11 6 31 4 45 -2 14 -4 105 -5 203 -1 98 -6 180 -10 183 -15 9 -10 54 5 54
11 0 13 7 6 31 l-9 30 46 -7 c52 -8 253 -9 296 -2 15 3 33 11 40 18 10 10 9
11 -2 5 -9 -5 -12 -4 -7 3 4 7 14 12 22 12 8 0 14 5 14 11 0 6 -9 9 -20 6 -11
-3 -20 -2 -20 2 0 10 -49 34 -75 37 -11 2 -42 8 -70 15 -68 15 -256 26 -263
15 -3 -5 3 -15 12 -22 11 -8 16 -21 13 -36 l-4 -23 -2 23 c-1 31 -26 38 -57
17 -38 -24 -106 -22 -348 14 -115 17 -247 31 -295 31 -56 0 -112 8 -161 21
-41 11 -87 23 -103 26 l-27 5 0 -131 c0 -92 3 -130 11 -125 8 4 10 -61 7 -225
l-3 -231 134 0 c117 0 132 -2 121 -15 -15 -18 -75 -56 -93 -59 -6 -1 -18 -6
-26 -10 -21 -13 -91 -25 -91 -15 0 4 -11 19 -24 32 -20 20 -26 22 -30 10 -3
-8 -6 -368 -6 -799 l0 -784 679 0 c433 0 688 4 707 10 16 6 36 23 45 39 16 27
15 30 -4 62 -12 18 -16 30 -9 25 7 -4 19 -20 27 -35 12 -25 12 -31 -1 -50 -18
-26 -17 -26 43 -3 26 11 57 22 67 26 15 5 17 9 8 18 -15 15 -16 41 -1 36 6 -2
11 -8 11 -13 0 -6 4 -18 10 -28 8 -16 11 -17 21 -4 9 11 229 93 307 114 48 13
-39 -25 -149 -66 -70 -26 -138 -58 -151 -71 -19 -19 -25 -21 -29 -9 -5 12 -20
9 -86 -18 l-80 -32 371 -1 c335 0 372 2 378 16 6 15 8 15 24 1 16 -15 124 -17
1165 -17 l1147 0 0 352 c0 303 -6 402 -22 378 -18 -28 -28 -53 -28 -71 0 -17
-23 -52 -32 -49 -2 1 -14 -3 -28 -9 -24 -9 -24 -10 -2 -10 13 -1 22 -7 22 -16
0 -13 -4 -14 -21 -5 -26 15 -38 4 -15 -13 12 -9 16 -22 13 -38 -4 -21 -4 -21
-6 6 l-2 30 -14 -25 c-14 -25 -14 -24 -15 18 0 23 -4 42 -9 42 -5 0 -7 -9 -4
-20 7 -28 -16 -25 -26 3 -5 13 -11 98 -13 188 l-4 165 100 -18 c91 -16 118
-17 104 -3 -3 3 -47 12 -98 21 -51 8 -97 17 -101 20 -5 3 -9 33 -9 66 l0 61
58 -6 c31 -4 80 -9 107 -13 32 -4 46 -3 40 3 -5 5 -53 15 -105 22 -52 7 -98
15 -102 19 -4 4 -5 17 -2 29 5 18 11 21 42 16 26 -3 33 -2 23 5 -8 6 -20 8
-28 5 -16 -6 -16 -7 -3 35 7 26 6 32 -3 25 -7 -5 -23 -9 -37 -8 -14 1 -37 -7
-52 -17 -14 -10 -35 -18 -46 -18 -11 0 -22 -4 -24 -8 -4 -13 -78 -23 -78 -11
0 5 -11 14 -25 19 -14 5 -25 17 -25 26 0 10 -3 15 -6 12 -3 -4 -18 7 -34 24
-16 16 -34 27 -39 23 -7 -4 -11 5 -12 22 0 23 -2 25 -11 12 -10 -15 -13 -14
-29 2 -10 10 -19 24 -20 31 -3 26 1 61 7 55 7 -7 39 21 47 43 4 8 6 -11 4 -43
-3 -78 10 -72 18 9 l7 65 52 -5 c28 -3 125 -8 216 -11 91 -3 189 -8 218 -11
l52 -6 0 131 c0 121 -1 131 -18 131 -18 0 -19 19 -25 357 -3 196 -10 359 -14
363 -4 4 -13 6 -19 3z m-227 -120 c-14 -4 -16 -8 -6 -19 15 -19 5 -66 -31
-142 -17 -35 -32 -80 -35 -100 -18 -145 -30 -213 -46 -249 l-18 -42 27 -3 c30
-4 -186 -14 -495 -24 l-203 -7 0 225 0 226 98 17 c53 10 228 42 387 71 160 29
301 52 315 52 17 0 19 -2 7 -5z m-647 -709 l0 -36 -115 3 c-113 3 -114 3 -109
26 4 14 2 23 -6 23 -6 0 -14 -8 -17 -19 -3 -12 -17 -21 -41 -25 -40 -6 -54 0
-32 14 8 5 16 15 16 22 1 7 2 16 3 21 0 4 69 7 151 7 l150 0 0 -36z m900 -15
l0 -41 -237 6 c-131 3 -246 6 -255 6 -14 1 -18 10 -18 36 l0 34 255 0 255 0 0
-41z"/>
<path d="M367 2136 c-3 -8 -2 -18 3 -21 18 -11 495 -52 504 -44 19 18 -10 27
-124 38 -234 23 -306 31 -341 37 -27 4 -38 1 -42 -10z"/>
<path d="M2920 1821 l-35 -6 0 -60 0 -60 63 1 c34 1 65 3 68 6 3 3 7 24 9 47
2 22 7 46 11 52 4 8 3 9 -4 5 -7 -4 -12 -1 -12 8 0 17 -32 19 -100 7z"/>
<path d="M369 1692 l-56 -3 1 -52 1 -52 90 4 c50 1 91 4 92 5 10 9 10 62 0 68
-9 6 -9 8 1 8 6 0 12 4 12 9 0 5 -15 9 -34 9 -19 0 -38 2 -43 4 -4 1 -33 2
-64 0z"/>
<path d="M3642 1287 c6 -18 14 -36 18 -40 4 -4 49 -15 100 -23 78 -13 95 -13
107 -2 11 12 10 17 -7 36 -33 35 -70 49 -152 55 l-76 5 10 -31z"/>
<path d="M2544 1079 c-3 -5 1 -9 9 -9 16 0 332 -103 382 -125 64 -27 113 -44
119 -39 3 2 4 1 1 -3 -12 -16 -54 -9 -112 18 -35 17 -68 26 -78 23 -13 -5 -10
-10 15 -22 23 -11 28 -17 18 -23 -9 -6 -6 -9 10 -9 12 0 25 -7 28 -15 4 -10
15 -13 36 -10 43 8 48 -1 30 -46 -20 -47 -23 -47 -166 -1 -48 16 -89 25 -92
21 -7 -12 22 -25 135 -58 117 -35 125 -36 118 -18 -9 23 28 90 66 124 l37 32
-73 21 c-39 11 -128 39 -197 62 -184 61 -280 87 -286 77z"/>
</g>
</svg>
